<?xml version="1.0" standalone="no"?><!DOCTYPE svg PUBLIC "-//W3C//DTD SVG 1.1//EN" "http://www.w3.org/Graphics/SVG/1.1/DTD/svg11.dtd"><svg t="1745503952316" class="icon" viewBox="0 0 1024 1024" version="1.1" xmlns="http://www.w3.org/2000/svg" p-id="4208" xmlns:xlink="http://www.w3.org/1999/xlink" width="16" height="16"><path d="M516.032 1022.976C231.04 1022.976 0 794.24 0 512S231.04 0.96 516.032 0.96C797.888 5.312 1023.936 232.896 1023.936 512c0 279.104-226.048 506.688-507.904 510.976z" fill="#99CC66" p-id="4209"></path><path d="M627.904 384.192V283.328H336.576v492.992h403.328V395.328H638.976a11.072 11.072 0 0 1-11.072-11.136z m5.504 246.912H442.944a11.136 11.136 0 0 1-11.136-11.136c0-6.336 4.992-11.264 11.136-11.264h190.464a11.136 11.136 0 1 1 10.24 16.896 11.072 11.072 0 0 1-10.24 5.504z m0-74.624H442.944a11.264 11.264 0 0 1 0-22.464h190.464a11.392 11.392 0 0 1 10.24 5.376 11.52 11.52 0 0 1 0 11.648 11.392 11.392 0 0 1-10.24 5.44z m11.2-89.728a11.392 11.392 0 0 1-3.264 7.936 11.008 11.008 0 0 1-7.936 3.328H442.944c-6.144 0-11.2-5.056-11.2-11.2s5.056-11.2 11.2-11.2h190.464c6.208 0 11.2 4.992 11.2 11.136z m0 0" fill="#FFFFFF" p-id="4210"></path><path d="M650.304 299.2v73.792h73.728l-73.728-73.792" fill="#FFFFFF" p-id="4211"></path></svg>